<svg width="20" height="20" viewBox="0 0 20 20" fill="none" xmlns="http://www.w3.org/2000/svg">
<g id="Icon">
<path id="icon" d="M7.97112 9.68846C8.00956 9.65251 8.06929 9.65251 8.10773 9.68846L11.6246 12.9775C11.6631 13.0134 11.7228 13.0134 11.7613 12.9775L16.8373 8.23036C16.8758 8.19441 16.9355 8.19441 16.9739 8.23036L18.8317 9.96774C18.8956 10.0275 19 9.98219 19 9.8947V5.1C19 5.04477 18.9552 5 18.9 5H13.773C13.6823 5 13.6385 5.11108 13.7047 5.17304L15.536 6.88562C15.5783 6.92514 15.5783 6.99217 15.536 7.03169L11.7613 10.5618C11.7228 10.5978 11.6631 10.5978 11.6246 10.5618L8.10773 7.27281C8.06929 7.23686 8.00956 7.23686 7.97112 7.27281L1.0781 13.7191C1.03584 13.7587 1.03584 13.8257 1.0781 13.8652L2.22322 14.9361C2.26166 14.9721 2.32138 14.9721 2.35983 14.9361L7.97112 9.68846Z" fill="white"/>
</g>
</svg>
