<svg width="18" height="14" viewBox="0 0 18 14" fill="none" xmlns="http://www.w3.org/2000/svg">
<g id="Icon">
<g id="icon">
<path d="M14.1321 4.6102C14.0989 4.53423 14.0525 4.46477 13.9949 4.4051L9.7949 0.2051C9.73523 0.147547 9.66577 0.101088 9.5898 0.0678999C9.5688 0.0580999 9.5464 0.0524999 9.524 0.0447999C9.46543 0.0248683 9.40445 0.0128619 9.3427 0.00910001C9.328 0.00770001 9.3147 0 9.3 0H4.4C3.6279 0 3 0.6279 3 1.4V12.6C3 13.3721 3.6279 14 4.4 14H12.8C13.5721 14 14.2 13.3721 14.2 12.6V4.9C14.2 4.8853 14.1923 4.872 14.1909 4.8566C14.1875 4.7948 14.1755 4.73378 14.1552 4.6753C14.1482 4.6529 14.1419 4.6312 14.1321 4.6102ZM11.8102 4.2H10V2.3898L11.8102 4.2ZM4.4 12.6V1.4H8.6V4.9C8.6 5.08565 8.67375 5.2637 8.80503 5.39497C8.9363 5.52625 9.11435 5.6 9.3 5.6H12.8L12.8014 12.6H4.4Z" fill="black"/>
<path d="M5.8 7H11.4V8.4H5.8V7ZM5.8 9.8H11.4V11.2H5.8V9.8ZM5.8 4.2H7.2V5.6H5.8V4.2Z" fill="black"/>
</g>
</g>
</svg>
