<svg width="18" height="14" viewBox="0 0 18 14" fill="none" xmlns="http://www.w3.org/2000/svg">
<g id="Icon">
<g id="icon">
<path d="M8.99999 2.8C8.26992 2.80093 7.57001 3.09136 7.05378 3.60759C6.53754 4.12383 6.24711 4.82373 6.24619 5.5538H7.64619C7.64619 4.8069 8.25379 4.2 8.99999 4.2C9.74619 4.2 10.3538 4.8069 10.3538 5.5538C10.3538 5.9724 10.0171 6.2762 9.50259 6.692C9.33451 6.82367 9.17307 6.96361 9.01889 7.1113C8.32029 7.8092 8.29999 8.5505 8.29999 8.6331V9.1H9.69999L9.69929 8.6569C9.69999 8.6457 9.72238 8.3867 10.008 8.1018C10.113 7.9968 10.2453 7.8918 10.3825 7.7812C10.9278 7.3395 11.7531 6.6724 11.7531 5.5538C11.7525 4.82374 11.4623 4.12373 10.9461 3.60743C10.43 3.09113 9.73005 2.80074 8.99999 2.8ZM8.29999 9.8H9.69999V11.2H8.29999V9.8Z" fill="black"/>
<path d="M9 0C5.1402 0 2 3.1402 2 7C2 10.8598 5.1402 14 9 14C12.8598 14 16 10.8598 16 7C16 3.1402 12.8598 0 9 0ZM9 12.6C5.9123 12.6 3.4 10.0877 3.4 7C3.4 3.9123 5.9123 1.4 9 1.4C12.0877 1.4 14.6 3.9123 14.6 7C14.6 10.0877 12.0877 12.6 9 12.6Z" fill="black"/>
</g>
</g>
</svg>
