<svg width="20" height="20" viewBox="0 0 20 20" fill="none" xmlns="http://www.w3.org/2000/svg">
<g id="ic-search">
<path id="shape" fill-rule="evenodd" clip-rule="evenodd" d="M14.1356 14.9973C12.8151 16.1215 11.1034 16.8 9.23329 16.8C5.05434 16.8 1.66663 13.4122 1.66663 9.23329C1.66663 5.05434 5.05434 1.66663 9.23329 1.66663C13.4122 1.66663 16.8 5.05434 16.8 9.23329C16.8 11.0921 16.1297 12.7944 15.0177 14.1116L18.6497 17.7436L17.7658 18.6275L14.1356 14.9973ZM15.55 9.23329C15.55 12.7219 12.7219 15.55 9.23329 15.55C5.74469 15.55 2.91663 12.7219 2.91663 9.23329C2.91663 5.74469 5.74469 2.91663 9.23329 2.91663C12.7219 2.91663 15.55 5.74469 15.55 9.23329Z" fill="white"/>
</g>
</svg>
