<svg width="18" height="14" viewBox="0 0 18 14" fill="none" xmlns="http://www.w3.org/2000/svg">
<g id="Icon" clip-path="url(#clip0_129_426)">
<g id="icon">
<path d="M13.1469 7.05417C13.6534 6.19089 13.8722 5.18882 13.7715 4.19296C13.6226 2.70912 12.7942 1.39746 11.4401 0.5L10.521 1.88569C11.4517 2.50285 12.0182 3.38201 12.1163 4.35931C12.1616 4.81352 12.105 5.27212 11.9508 5.70173C11.7966 6.13135 11.5485 6.52119 11.2247 6.84291L10.2332 7.83435L11.579 8.22943C15.099 9.2608 15.1397 12.8007 15.1397 12.8365H16.8032C16.8032 11.3485 16.0081 8.44069 13.1469 7.05417Z" fill="black"/>
<path d="M7.23811 7.84602C9.07294 7.84602 10.5651 6.35387 10.5651 4.51903C10.5651 2.6842 9.07294 1.19204 7.23811 1.19204C5.40327 1.19204 3.91112 2.6842 3.91112 4.51903C3.91112 6.35387 5.40327 7.84602 7.23811 7.84602ZM7.23811 2.85554C8.15552 2.85554 8.9016 3.60161 8.9016 4.51903C8.9016 5.43645 8.15552 6.18253 7.23811 6.18253C6.32069 6.18253 5.57461 5.43645 5.57461 4.51903C5.57461 3.60161 6.32069 2.85554 7.23811 2.85554ZM8.48573 8.67777H5.99049C3.23823 8.67777 1 10.916 1 13.6683V14.5H2.6635V13.6683C2.6635 11.8334 4.15565 10.3413 5.99049 10.3413H8.48573C10.3206 10.3413 11.8127 11.8334 11.8127 13.6683V14.5H13.4762V13.6683C13.4762 10.916 11.238 8.67777 8.48573 8.67777Z" fill="black"/>
</g>
</g>
<defs>
<clipPath id="clip0_129_426">
<rect width="18" height="14" fill="white"/>
</clipPath>
</defs>
</svg>
