<svg width="21" height="20" viewBox="0 0 21 20" fill="none" xmlns="http://www.w3.org/2000/svg">
<g id="Icon">
<path id="icon" d="M12.0946 7.02254C12.0562 6.98659 11.9965 6.98659 11.958 7.02254L8.44111 10.3115C8.40266 10.3475 8.34294 10.3475 8.3045 10.3115L2.6932 5.06388C2.65476 5.02793 2.59503 5.02793 2.55659 5.06388L1.41147 6.13479C1.36921 6.17431 1.36921 6.24134 1.41147 6.28086L8.3045 12.7272C8.34294 12.7631 8.40266 12.7631 8.44111 12.7272L11.958 9.43818C11.9965 9.40223 12.0562 9.40223 12.0946 9.43818L15.8694 12.9683C15.9116 13.0078 15.9116 13.0749 15.8694 13.1144L14.0381 14.827C13.9719 14.8889 14.0157 15 14.1064 15H19.2334C19.2886 15 19.3334 14.9552 19.3334 14.9V10.1053C19.3334 10.0178 19.229 9.9725 19.1651 10.0323L17.3073 11.7696C17.2689 11.8056 17.2091 11.8056 17.1707 11.7696L12.0946 7.02254Z" fill="white"/>
</g>
</svg>
